PathFileType	4	(X/Y/Z)	31_2_rein_48_p0_0-106.trc
DataRate	CameraRate	NumFrames	NumMarkers	Units	OrigDataRate	OrigDataStartFrame	OrigNumFrames
48.0	48.0	5	27	m	48.0	93	107
Frame#	Time	RHip			RKnee			RAnkle			RBigToe			RSmallToe			RHeel			LHip			LKnee			LAnkle			LBigToe			LSmallToe			LHeel			Neck			Head			Nose			RShoulder			RElbow			RWrist			RThumb			RIndex			RPinky			LShoulder			LElbow			LWrist			LThumb			LIndex			LPinky			
		X1	Y1	Z1	X2	Y2	Z2	X3	Y3	Z3	X4	Y4	Z4	X5	Y5	Z5	X6	Y6	Z6	X7	Y7	Z7	X8	Y8	Z8	X9	Y9	Z9	X10	Y10	Z10	X11	Y11	Z11	X12	Y12	Z12	X13	Y13	Z13	X14	Y14	Z14	X15	Y15	Z15	X16	Y16	Z16	X17	Y17	Z17	X18	Y18	Z18	X19	Y19	Z19	X20	Y20	Z20	X21	Y21	Z21	X22	Y22	Z22	X23	Y23	Z23	X24	Y24	Z24	X25	Y25	Z25	X26	Y26	Z26	X27	Y27	Z27	
93	1.9375	0.1957664165334406	0.5957939003877294	0.1950346390982204	0.17502711585144473	0.7761576606452006	0.5464335674526584	0.11940346554724063	1.0637107519224038	0.9188227523727035	0.06392360860171331	0.8196934549573826	1.0121981753556106	0.13256246983141476	0.8754057910059782	1.0101710432016622	0.10211314108961	1.1437013677959196	0.95476084063158	-0.02957750869324526	0.6252227761081619	0.17334714236962978	-0.05579732732198254	0.8107378857354385	0.5308993902417565	-0.08088228854127147	1.0229762515325742	0.8982816052974154	-0.07160222936623464	0.8605672878810452	0.9884305292647978	-0.12424766781015598	0.908810113672874	0.9820776450502755	-0.06397916233789243	1.1231146852082483	0.9394338010856119	0.12804184111104241	0.2871371252089106	-0.3989594124991279	0.10367111568725891	0.1016806121080306	-0.6171433557690227	0.08803013421089943	0.10803378509628224	-0.4639676306139319	0.27748598435580063	0.3263172771718222	-0.29910339908574574	0.32586032953749666	0.42682907042836177	-0.026162190838526132	0.09257303890146226	0.31115222195681563	0.1467991349445371	0.02832610680715158	0.23281462640255163	0.20756244109623867	0.015171463145706967	0.33342728312151143	0.2194323397041361	0.002658898954632491	0.3180519575064422	0.2150645146361621	-0.03147850637440546	0.36397171408702506	-0.3244237373639837	-0.08384191852646289	0.4148043615340563	-0.05388105147798781	0.04081267501667978	0.3582181994554846	0.17988421961446305	0.11402086964063893	0.3634851292494242	0.253749389509263	0.12190880592284654	0.35834278485109256	0.28886657933657384	0.077983032704241	0.3642729342205336	0.2882932115377482
94	1.9583333333333333	0.19640435824390676	0.5942036982564887	0.19200268314201813	0.1740099305718521	0.7780476231880731	0.5502586754676464	0.11498916204560787	1.0468927204084175	0.9173141648140152	0.0636650953325436	0.8191727727302194	1.0122554043082566	0.13234126378063713	0.8747128602562083	1.010228001905625	0.10211873209839568	1.143578938404163	0.9548778149663889	-0.029596315553593027	0.6251234635266335	0.1730239635096348	-0.05694188164376235	0.8127325354066204	0.5345543784807747	-0.08090427597407	1.0232887567556295	0.9022764459109855	-0.07161019743679214	0.8601076758210495	0.9885885266555184	-0.12428549327676688	0.9087298250499577	0.9821919977116206	-0.05969731844853768	1.1032666418052992	0.9425274243114532	0.13189341701055451	0.2876502001903651	-0.39904118205569444	0.10378866081087214	0.10188066496585962	-0.6172637434036697	0.08812385143793734	0.10810445175232934	-0.4641336435871224	0.27758428240055016	0.3264375762874103	-0.299136434284022	0.3258005132276262	0.4267587388509655	-0.026102388420164095	0.08890145229317695	0.30071970637891576	0.1487549722572892	0.02398633338159587	0.19679701422546	0.24035132850212546	0.020599974501142943	0.35349245876996915	0.23205578543618452	0.011045795728263334	0.3121699891651908	0.22637565117348174	-0.031532587626113	0.36401169768048575	-0.3243717816865315	-0.08749709885487747	0.4156819978666908	-0.050152461623472644	0.04008685423992024	0.3593704723175549	0.18260985697640417	0.11797761654284702	0.3384057904637888	0.26390425310166	0.12197458733848887	0.3596768983627721	0.2879844156216496	0.07593908226373156	0.35141751686468575	0.2921385136147796
95	1.9791666666666667	0.19928833326985984	0.5792591851927724	0.1940947516571154	0.17404662661190726	0.7780295698979234	0.5501880829814664	0.11496240532187511	1.0469888960123483	0.9173823994871081	0.06373580571522959	0.8193433070017495	1.0122609246624832	0.13241819124889476	0.874793653831417	1.010231296559962	0.1021542333054637	1.1436509016618497	0.9548216114692045	-0.02885298393461341	0.6240571024069557	0.16976815650135843	-0.05587757499368001	0.8109897075435311	0.5309061869153978	-0.08024902003099166	1.0270735393506731	0.9069879232623647	-0.07164112975615766	0.8599815734093114	0.9886702901752504	-0.12434645759542998	0.9088389411255283	0.982354587150978	-0.05968386408332618	1.10316259992296	0.9425237171104868	0.1319568482808488	0.2875695022831905	-0.39908296197393783	0.10774357955246783	0.10274734270836348	-0.6174130088529843	0.08816465120668766	0.10811688876078547	-0.4642128488526997	0.2820154284667389	0.32741238889665286	-0.2991567409644605	0.32536675313158003	0.4277825239832657	-0.022879801580959157	0.09337269266471462	0.30376583331604556	0.1525734517545487	0.02973447645567878	0.22862871150810962	0.2211147352699848	0.03176654284407083	0.35388414908222354	0.23431090551501374	0.014875663358183053	0.327447224136101	0.2308681867774814	-0.034994927581304236	0.35278894481822215	-0.32071070486963127	-0.08749340515039056	0.4158386865441199	-0.05008070639579856	0.03641965291411045	0.34831265829682184	0.18444025485420437	0.11585185039520675	0.33902355548179447	0.2654772652549274	0.12168879408240252	0.360565094459399	0.287401588804262	0.08863714761487171	0.3516732779378632	0.2963845475996732
96	2.0	0.19819609134596744	0.5776927045172389	0.19355650876356315	0.16449672738964138	0.792169491385994	0.5493210646081009	0.11806031591817637	1.0661696571800616	0.9225946052902826	0.06473251801126473	0.81628758459353	1.0080717611688317	0.12721274063890134	0.8728400973197351	1.0098049637162412	0.10206009469723386	1.1438556418070178	0.9549935997555687	-0.0298695248093962	0.6214012007371315	0.1687724009893126	-0.05589202171514531	0.8111060705242441	0.5307166897731506	-0.08028036620602669	1.0267714836636634	0.9032638959711203	-0.07162509408176107	0.8600654748289228	0.9881811567043038	-0.12404042302783036	0.9085740518669334	0.9819545637868785	-0.056111707982403614	1.117720608453105	0.9403329673838735	0.13182894772632575	0.288987197499229	-0.3959908944038738	0.10786512639288737	0.10290765695704375	-0.6173424083752674	0.09576873805700854	0.11855610627073054	-0.4683325853549707	0.2777083733751004	0.327003835416581	-0.29892070618336186	0.3255056291868976	0.4275338520413739	-0.022464577945358975	0.09723157249927601	0.3147082035390411	0.15067250042439398	0.033978600220379275	0.23635511870999107	0.21882643490259882	0.033810713848625544	0.33927234400554535	0.23854543800338818	0.007497726054275685	0.32589610556736576	0.22510265816242533	-0.03492470394412867	0.3528686661964298	-0.3207377036422396	-0.07974490834751001	0.40513740270882787	-0.047027185235664105	0.03573607678446335	0.3587458235172083	0.1825227686459599	0.11557997351010305	0.34967200936687637	0.25974292780928593	0.12173396919300127	0.3621620127485824	0.28690156344635337	0.09326223985539292	0.3429678925385891	0.29787662282626154
97	2.0208333333333335	0.19820611936651553	0.577573676811658	0.19378389395446424	0.16448664280258415	0.7919462505251841	0.549301299057155	0.11367097280244155	1.0492962175901515	0.9211550435479589	0.06482480160798627	0.8157883040988598	1.00794897565928	0.13189500757111916	0.8740406675827254	1.0103494612655657	0.10205849366814693	1.1438297233171828	0.9551469316437466	-0.02987225844541371	0.6213819880360268	0.16897360520696375	-0.05588493180112092	0.8109976391643605	0.5307219344011083	-0.08028546806537971	1.026844496897856	0.9033409756277667	-0.0716348034814787	0.8597527878846398	0.9882064403384033	-0.12404223813355804	0.9085465674679543	0.9819602914434679	-0.059186155543540425	1.1063871329101362	0.9423377477292151	0.1319238197394963	0.28783929306630757	-0.39910673547359393	0.10793150773340214	0.10304125317620241	-0.6174026406930396	0.09580879031809156	0.11859924317040975	-0.46841569537680094	0.28203221583729843	0.3281313781980592	-0.2990899419081527	0.32558730047543344	0.4278192687764418	-0.022610810857028398	0.09727874576753519	0.31466808419990794	0.15066623870590606	0.03325878904655137	0.2348420487189447	0.21420291765190533	0.03702998519954388	0.3256816154120312	0.24008063825233397	0.010290614096012908	0.3113664204449817	0.2231007175333316	-0.034901443598835354	0.35297026422909705	-0.3207303024451822	-0.0797364283884225	0.40522929104773187	-0.04696545907280425	0.03558399985044269	0.35845318979919166	0.18243076535218775	0.11561898546815352	0.34611327321375657	0.25186294350069044	0.12126216394409083	0.35949913133161515	0.2832970520553055	0.09292372303001054	0.3399652091435002	0.2941271002665817
